<svg xmlns="http://www.w3.org/2000/svg" style="display:none">
  <!-- Map Marker -->
  <symbol id="marker" viewBox="0 0 24 24">
    <path d="M12 2C7.03 2 3 6.03 3 11c0 5.25 7.5 11 9 11s9-5.75 9-11c0-4.97-4.03-9-9-9zm0 13.5c-2.49 0-4.5-2.01-4.5-4.5S9.51 6.5 12 6.5s4.5 2.01 4.5 4.5-2.01 4.5-4.5 4.5z"/>
  </symbol>
  <!-- Plus/Add -->
  <symbol id="plus" viewBox="0 0 24 24">
    <path d="M19 13H13V19H11V13H5V11H11V5H13V11H19V13Z"/>
  </symbol>
  <!-- List -->
  <symbol id="list" viewBox="0 0 24 24">
    <path d="M3 13h2v-2H3v2zm0 4h2v-2H3v2zm0-8h2V7H3v2zm4 8h14v-2H7v2zm0-4h14v-2H7v2zm0-6v2h14V7H7z"/>
  </symbol>
  <!-- Layers -->
  <symbol id="layers" viewBox="0 0 24 24">
    <path d="M12 2L2 7l10 5 10-5-10-5zm0 7.19L4.24 7 12 3.81 19.76 7 12 9.19zm0 2.62l8-4v2.08l-8 4-8-4V7.81l8 4z"/>
  </symbol>
  <!-- Stats/Chart -->
  <symbol id="stats" viewBox="0 0 24 24">
    <path d="M3 17h2v-7H3v7zm4 0h2v-4H7v4zm4 0h2v-10h-2v10zm4 0h2v-2h-2v2zm4 0h2v-13h-2v13z"/>
  </symbol>
  <!-- Import -->
  <symbol id="import" viewBox="0 0 24 24">
    <path d="M19 9h-4V3H9v6H5l7 7 7-7zm-7 9c-4.97 0-9-4.03-9-9h2c0 3.87 3.13 7 7 7s7-3.13 7-7h2c0 4.97-4.03 9-9 9z"/>
  </symbol>
  <!-- Export -->
  <symbol id="export" viewBox="0 0 24 24">
    <path d="M5 20h14v-2H5v2zm7-18l-7 7h4v6h6v-6h4l-7-7z"/>
  </symbol>
  <!-- Trash/Delete -->
  <symbol id="trash" viewBox="0 0 24 24">
    <path d="M3 6h18v2H3V6zm2 3h14v13a2 2 0 0 1-2 2H7a2 2 0 0 1-2-2V9zm3 3v7h2v-7H8zm4 0v7h2v-7h-2z"/>
  </symbol>
</svg> 